<svg width="190" height="35" fill="none" xmlns="http://www.w3.org/2000/svg"><path d="M55.3 20.5v1.7l1.7.3v.8l-.8.3a29.6 29.6 0 01-3 .6h-.8c-.2-.3-.3-.7-.3-1v-1.4h-.2a3.2 3.2 0 01-2.2 2.3 4.3 4.3 0 01-2.8 0l-1.2-.7-.8-1-.3-1.4c0-.8.2-1.4.5-1.8a3 3 0 011.2-1.2c.6-.3 1.4-.5 2.3-.6 1-.2 2-.3 3.3-.3.2-1.4.1-2.4-.1-3-.3-.7-.8-1-1.6-1-.5 0-1 0-1.4.2l-1 2.9h-1.1a7.7 7.7 0 01-.8-1.4 17.8 17.8 0 01-.4-1.7c.6-.5 1.4-.8 2.4-1 1-.3 2-.4 3-.4s1.7.1 2.3.3l1.3.8c.3.4.6.8.7 1.2l.2 1.5a43.1 43.1 0 01-.1 5zm-5.4 1.9l.8-.2a2.2 2.2 0 001-1l.2-.6v-2.4l-1.8.1-1.1.4-.6.7a3 3 0 00-.2 1c0 .7.2 1.1.5 1.5.3.3.7.5 1.2.5zm14.6 6.4h-6.6v-1l1.5-.5V13.7l-1.5-.2v-1l.9-.2a13.9 13.9 0 012.3-.5H63v2.6c.3-.8.7-1.4 1.3-2a4.8 4.8 0 014.3-.4c.6.3 1.1.7 1.5 1.2.4.4.7 1 .9 1.8a9.6 9.6 0 01-.1 5.5c-.3.8-.7 1.5-1.2 2-.5.6-1.1 1-1.9 1.3a6.6 6.6 0 01-4.8 0v3.5c.3 0 .5 0 .8.2l.8.4v.9zm.8-15.2c-.6 0-1 .2-1.5.6-.4.4-.7 1-.9 1.8v6.4l.8.4 1.1.1c1 0 1.6-.4 2-1.3a9 9 0 00.7-3.9c0-1.3-.2-2.3-.5-3-.3-.7-.9-1-1.7-1zM79 28.8h-6.6v-1l1.6-.5V13.7l-1.6-.2v-1l1-.2a13.9 13.9 0 012.3-.5h1.7v2.6c.3-.8.7-1.4 1.3-2 .6-.4 1.4-.7 2.5-.7.7 0 1.3.1 1.9.4.5.2 1 .6 1.4 1 .4.5.7 1.2 1 2a9.6 9.6 0 01-.2 5.4c-.2.8-.6 1.5-1.2 2-.5.6-1.1 1-1.9 1.3a6.6 6.6 0 01-4.8 0v3.5c.3 0 .5 0 .8.2.3 0 .5.2.8.4v.9zm.8-15.2c-.6 0-1 .2-1.5.6-.4.4-.7 1-.9 1.8v6.4l.8.4 1.2.1c.9 0 1.6-.4 2-1.3a9 9 0 00.6-3.9c0-1.3-.1-2.3-.5-3-.3-.7-.9-1-1.7-1zm8.2 8.7c0-.6.2-1 .6-1.4a2 2 0 011.4-.5c.6 0 1.1.2 1.5.5.4.4.6.8.6 1.4 0 .6-.2 1-.6 1.4-.4.3-.9.5-1.5.5a2 2 0 01-1.4-.5c-.4-.4-.6-.8-.6-1.4zm16.6-.2c-.2.3-.3.6-.6.8l-1 .7-1.2.5-1.4.2c-1 0-2-.2-2.7-.4a5 5 0 01-1.9-1.3c-.5-.6-.8-1.2-1-2-.3-.8-.4-1.7-.4-2.6 0-2 .5-3.6 1.6-4.7 1.1-1 2.7-1.6 4.8-1.6a8.3 8.3 0 013.8.9 13.1 13.1 0 01-.4 1.8 10.5 10.5 0 01-.5 1.8h-1.2l-1-2.9a1 1 0 00-.4-.1l-.5-.1c-.4 0-.8 0-1.1.2a2 2 0 00-.8.8c-.2.4-.4.8-.5 1.5l-.1 2.2c0 .7 0 1.3.2 1.8.1.6.4 1 .6 1.5.3.4.7.7 1.2 1 .4.2 1 .3 1.6.3a4 4 0 002.5-.8l.4.5zm7.6-7.3l-.7.4a3 3 0 00-.7 1.1v6.2a5.1 5.1 0 012 .6v.9h-7v-1l.8-.3.8-.2v-8.8l-1.6-.2v-1l1-.2a13.9 13.9 0 012.3-.5h1.7v3.1h.1a6 6 0 011.5-2.2l1-.7 1.3-.3.5 1 .3 1.1v1h-3.3zm15 7.2a3 3 0 01-.6.8l-1 .8-1.4.5-1.8.2c-1 0-1.8-.2-2.6-.4a5.2 5.2 0 01-3.1-3.3c-.3-.8-.4-1.6-.4-2.6 0-2 .6-3.6 1.6-4.7a6 6 0 014.5-1.6c.8 0 1.6.1 2.3.3a4 4 0 012.7 3.2c.2.8.2 1.8 0 3h-7.4c0 1.3.4 2.3 1 3 .6.8 1.6 1.2 2.8 1.2l1.6-.3c.6-.1 1-.3 1.4-.6l.4.5zm-5-9l-.8.2-.6.7a4 4 0 00-.5 1.2l-.2 1.9h3.9c0-1.3 0-2.2-.2-3-.3-.6-.8-1-1.5-1zm17.5 7.5v1l.1.7 1.7.3v.8l-.8.3a29.6 29.6 0 01-3 .6h-.9l-.2-1-.1-1.4h-.1a3.2 3.2 0 01-2.2 2.3 4.3 4.3 0 01-2.8 0c-.5-.2-.9-.4-1.2-.7l-.8-1-.3-1.4c0-.8.1-1.4.4-1.8A3 3 0 01131 18c.6-.3 1.3-.5 2.2-.6 1-.2 2-.3 3.4-.3.1-1.4 0-2.4-.2-3-.2-.7-.7-1-1.5-1-.5 0-1 0-1.4.2l-1.1 2.9h-1a7.7 7.7 0 01-.8-1.4 17.8 17.8 0 01-.4-1.7c.6-.5 1.4-.8 2.4-1 1-.3 2-.4 3-.4s1.7.1 2.2.3c.6.2 1 .5 1.4.8l.7 1.2.2 1.5a43.1 43.1 0 01-.2 5zm-5.4 1.9l1-.2a2.2 2.2 0 00.9-1l.2-.6v-2.4l-1.8.1-1.2.4-.5.7a3 3 0 00-.2 1c0 .7.2 1.1.4 1.5.3.3.7.5 1.2.5zm7.7-9.8c.6-.4 1.3-.7 2-.8v-2l.9-.4 1.7-.4h.8v3h3.2v1.5h-3.2v6.2c0 1 .1 1.7.3 2 .3.5.7.7 1.3.7h1l1-.3.1.8a6.8 6.8 0 01-2.8 1.3h-1.3c-1 0-1.8-.2-2.3-.7-.5-.6-.8-1.5-.8-2.7v-7.3h-1.9v-1zM159 24h-6.6v-1l.7-.2.8-.3v-8.8l-1.5-.2v-1a8.4 8.4 0 012-.5 16.3 16.3 0 012.2-.3h.8v10.8a8 8 0 011.6.6v.9zm-5.5-16c0-.5.2-1 .6-1.3.4-.3.9-.4 1.5-.4s1.1.1 1.5.4c.4.4.6.8.6 1.4 0 .5-.2 1-.6 1.3-.4.3-.9.4-1.5.4s-1.1-.1-1.5-.4c-.4-.4-.6-.8-.6-1.3zm6.8 10c0-1 .2-1.8.5-2.6s.7-1.5 1.2-2c.6-.6 1.3-1 2-1.3.8-.2 1.7-.4 2.7-.4 1.1 0 2 .2 2.9.5a5 5 0 013.1 3.3 8.4 8.4 0 010 5.1 5.3 5.3 0 01-3.3 3.3c-.8.2-1.7.4-2.7.4-1 0-2-.2-2.8-.5-.8-.3-1.5-.7-2-1.3-.5-.5-1-1.2-1.2-2-.3-.7-.4-1.6-.4-2.5zm3.7 0c0 .7 0 1.4.2 2 0 .6.2 1 .4 1.5l1 1c.3.2.8.3 1.4.3.4 0 .7 0 1-.2l.7-.8c.3-.4.4-1 .5-1.5a13.2 13.2 0 000-4.3c0-.6-.2-1-.4-1.5-.2-.4-.5-.7-.9-1-.4-.2-.8-.3-1.4-.3-.4 0-.8 0-1 .2a2 2 0 00-.8.9c-.2.3-.4.8-.5 1.4l-.2 2.3zm25 6h-6.4v-1a6.7 6.7 0 011.4-.5v-5.7c0-1-.2-1.7-.5-2.3-.3-.6-.8-.9-1.5-.9-.6 0-1.1.2-1.6.6-.4.4-.8 1-1 1.6v6.7l.7.2.6.4v.9h-6.3v-1a8 8 0 011.6-.5v-8.8l-1.6-.2v-1l.8-.2a15.3 15.3 0 013.4-.6h.8v2.5c.4-.7.9-1.3 1.6-1.7a4 4 0 012.4-.8c.6 0 1.2 0 1.7.3.5.1.9.4 1.2.7.4.4.6 1 .8 1.6.2.6.3 1.5.3 2.5v5.7c.7.1 1.2.3 1.6.6v.9z" fill="#000"/><circle opacity=".7" cx="14" cy="14" r="14" fill="#0056EC"/><circle opacity=".7" cx="22" cy="21" r="14" fill="#C8DBFB"/></svg>