<svg width="280" height="239" fill="none" xmlns="http://www.w3.org/2000/svg"><g clip-path="url(#clip0)"><path d="M58.8 30.4C68 31 72 24.7 76.2 16.6c11.9-22 38.3-20 47.1-6.3 6.3 9.6 19.8 7.6 30.8 3.9 10.7-3.8 29-7.3 43.7-2.9 12.8 3.9 18 17.9 29.6 17 25.4-1.9 38.2 23.2 33.6 34.1-3 7.2-4.5 15.1-2 22.5 2.7 8 8.8 14.5 13.8 21.4 5 7 9 15.7 6.5 23.8-2.2 7-8.5 11.8-12.4 18-12.1 19.1 0 48.5-16.3 64.5-11.5 11.4-30.4 8.8-46.6 11-13.5 1.8-26.2 7.4-39.7 9.6-27.2 4.5-54.7-5.4-82.3-5.6-9.7-.1-19.6 1-29-1.5a40.4 40.4 0 01-27.6-25c-6-16.6-.3-36-7.1-52.3C12.7 135.4-.8 124.5 0 110c.6-9 6.7-16.5 11-24.4C17.1 73.8 8.8 27 58.7 30.4zm80.4-21.7c-2.5 0-4.4 1.5-4.4 3.4 0 1.8 2 3.2 4.4 3.3 7.8.5 7.8-2.6 7.8-4.5 0-3-5.4-2.2-7.8-2.2zm80 14.3a13 13 0 007.5 3c.7 0 1.5 0 2-.5.8-.6.8-1.8.2-2.4-.4-.4-1-.6-1.5-.8-.9-.4-1.7-1-2.3-1.7-.1-.3-.2-.6-.5-.7-1.5-.8-8.2.8-5.4 3.1zm13.4 3c.7.2 1.4 0 2.1-.2.5-.1 1-.5.9-1l-.5-.4c-.9-.5-2-.8-3-.2-1 .6-.2 1.6.5 1.8zm32 63.3c.1 1 .8 2 1.4 2.8 1.2 1.6 2.4 3.3 4 4.6a4 4 0 002.3 1c.8 0 1.6-.3 2.2-.8a7 7 0 002.8-4.8c.3-2.6-.9-5-2.3-7.3a9.2 9.2 0 00-3.3-3.5c-2.5-1.2-4-.1-4.8 2-.6 2-2.6 3.8-2.3 6zM4.8 149.8c-1.3 1-.1 4.4.2 6.6.2.6.3 1.3.7 1.8.6.8 1.5 1 2.4 1.3 1.6.5 3.5.9 4.7-.2.9-.9 1-2.2 1-3.4 0-1 0-2.2-.2-3.3 0-.5-.1-1-.4-1.5-.4-.5-1-.9-1.6-1.1-2.3-1-5.5-1.4-6.8-.2zm78.6 83c-.8.2-1.7.5-1.8 1.2 0 .7.4 1.2 1 1.6 4.1 3.1 9.8 3.3 15 3.4.7 0 1.3 0 1.9-.2 1-.5 1.6-2 1.1-3-.2-.5-.5-.8-.8-1.1-4.2-4.1-11.2-3-16.4-1.9zm104.8-2.1c-4.7 3.4 0 6.5 6 4.2 3.3-1.2 6.3-2.4 9.6-3.2 1.1-.3 7.6-1.7 7.6-3.1 0-3.9-7.3-3-11.9-2.3-3.7.5-7.4 1.5-11.3 4.4z" fill="#ECF3FF"/><path d="M99.2 220.7c12.6 0 22.8-1 22.8-2.2 0-1.1-10.2-2-22.8-2-12.6 0-22.8.9-22.8 2 0 1.2 10.2 2.2 22.8 2.2zM216.3 220.7c12.6 0 22.8-1 22.8-2.2 0-1.1-10.2-2-22.8-2-12.6 0-22.8.9-22.8 2 0 1.2 10.2 2.2 22.8 2.2z" fill="#C8DBFB"/><path d="M264.5 68.6l-.2-1.2" stroke="#C8DBFB" stroke-linecap="round" stroke-linejoin="round"/><path d="M263.7 65.1c-4-13.8-17-12.5-28.7-12.5l-208 .5C7.4 53 9.3 81.4 24.6 81.4c8.9 0 12.2 16.6-3 16.6-9.2 0-9.5 11.7-3.3 14" stroke="#C8DBFB" stroke-linecap="round" stroke-linejoin="round" stroke-dasharray="3.99 3.99"/><path d="M19.4 112.3h1.2" stroke="#C8DBFB" stroke-linecap="round" stroke-linejoin="round"/><path d="M23 111.8a2.8 2.8 0 11-5.6 1 2.8 2.8 0 015.6-1zM267.3 69.8a2.8 2.8 0 11-5.6-1 2.8 2.8 0 015.6 1zM51.8 91.2c-.4 2.3-1 4.5-1.8 6.8a115 115 0 01-5.9 13.9 26.4 26.4 0 01-8.2 8.9c.3-6.2.3-13.5-.4-19.7-.7-6 1.5-10.6-.9-16.2l-1-2.1a29.9 29.9 0 01-2.6-8.2c-.5-3.6.6-7.7 3.8-9.6a8.4 8.4 0 017.6-.2c2.4 1 4.3 3 5.8 5.2a29 29 0 013.6 21.2z" fill="#5193F4"/><path d="M40.8 71.2c4.6 6.5 5 14 5.4 22 .4 8-1.5 16.1-5.4 23" stroke="#0B43A4" stroke-miterlimit="10" stroke-linecap="round" stroke-linejoin="round"/><path d="M40.6 191.5a50 50 0 01-8.9-9.4c-2-3-3.4-6.6-5.2-10-1.2-2-2.6-4.1-3.3-6.5-.7-2.3-.5-5 1.2-6.9 1.7-1.8 4.7-2.1 7-1.1 2.4 1 4.2 2.9 5.5 5 1.9 2.9 3 6.1 3.6 9.4.5 3 .3 6.1.8 9.2.4 2.8 1.4 5.5 2.6 8 1 2.4 3.8 6.6 4.5 9-2 1-6.4-5.5-7.8-6.7z" fill="#00AD9F"/><path d="M29.3 161.8c3 1.4 4.3 5 5 8.3.7 3.8.5 7.9 2.2 11.3a53.4 53.4 0 0010.6 16" stroke="#00AD9F" stroke-miterlimit="10" stroke-linecap="round" stroke-linejoin="round"/><path d="M24.7 182.7c-2.7-1-6.3-1.5-8 .8-1.5 2-.7 4.7.3 7 .8 1.8 1.9 3.7 3.7 4.7 1.2.7 2.6.9 4 1 3.8.5 7.7.7 11.6.7 4.5 0 10 1.8 13.7 4.7-4.8-9-16.3-15.3-25.3-18.9z" fill="#0056EC"/><path d="M20 188.5c3.4.1 6.8.4 10.1 1.3a72 72 0 0118.3 9.5" stroke="#0B43A4" stroke-miterlimit="10" stroke-linecap="round" stroke-linejoin="round"/><path d="M54 164.4a22.8 22.8 0 00-16-10.1c-4.7-.7-9.6.2-14.3-.8-5-1-9.4-4.2-12-8.5a18.5 18.5 0 01-1.7-14.6c1-3.7 3.6-7.1 7.2-8.3 2-.7 4.2-.6 6.2 0 1.9.4 3.6 1.1 5.2 2.2 3.7 2.3 6.7 5.9 9 9.7a85.1 85.1 0 0013.8 15.7c2.3 3 1.2 11.3 2.6 14.7z" fill="#52D2BC"/><path d="M16.2 132.7a90.8 90.8 0 0132 21.5" stroke="#00AD9F" stroke-miterlimit="10" stroke-linecap="round" stroke-linejoin="round"/><path opacity=".2" d="M49.3 152.9s-17-13.8-20.7-28.6c3.7 2.3 6.7 5.9 9 9.7 2 3.4 7 8.8 10.3 12.3l1.4 6.6zM50 98a115 115 0 01-5.9 13.9 26.4 26.4 0 01-8.2 8.9c.3-6.2.3-13.5-.4-19.7-.7-6 1.5-10.6-.9-16.2l-1-2.1.7.2c4 1.7 5.7 5.8 6 9.8.3 3.3-.3 6.6-.7 9.9a13 13 0 000 4.5c.3 1.8 3 1.7 3.2 0l1-5.6c.4-1.6.7-3.3 2-4.5.6-.4 1.3-.7 2-.7 1 0 1.8.7 2.2 1.6z" fill="#5275A0"/><path d="M49.3 149.4c-2.7-14-4.1-16.2-3-19.7 1.6-4.5.7-9 2.1-13.5a26 26 0 001.3-14c-.4-1.4-1.1-3-2.9-3-.7-.1-1.4.2-1.9.6-1.3 1.2-1.7 2.9-2 4.5l-1 5.5c-.3 1.8-3 2-3.3.1a13 13 0 010-4.5c.5-3.3 1-6.6.8-10-.4-3.9-2.1-8-6-9.7-1.4-.6-3-.7-4.4-.3-4 1-5.1 5-4.5 8.4.4 2.4 1.5 4.5 2.5 6.7 2.5 5.4.7 10.3 1 16.2 1 16.3 21.3 32.7 21.3 32.7z" fill="#7EE8D4"/><path d="M31.2 89.6c2 10 4 20.1 7.9 29.5 1.1 2.8 1.7 6.4 8.3 14" stroke="#00AD9F" stroke-miterlimit="10" stroke-linecap="round" stroke-linejoin="round"/><path d="M109.2 92.2l-6-7a62.3 62.3 0 00-6.4-6.5c-4.6-3.8-9.9-7-15.4-9.4-3.4-1.5-7-2.6-9.8-5-2.9-2.2-5-6-4-9.5a8.4 8.4 0 015.4-5.5c2.4-.9 5.2-.8 7.8-.2A29 29 0 0198 61.9l.2.3c3 4.6 5 9.7 7 14.9l1.6 5c.8 2.5 3.4 7.6 2.3 10.1z" fill="#5193F4"/><path d="M76.3 55c7.8 1.6 13.4 6.8 19.2 12.2 5.8 5.5 10 12.7 12 20.4" stroke="#0B43A4" stroke-miterlimit="10" stroke-linecap="round" stroke-linejoin="round"/><path opacity=".2" d="M103.2 85.1l.1 2.5c-2-.5-3.3-3.5-4.2-6.8-.9-3.3-1.3-6.8-1.5-8.4a36 36 0 01.7-10.2c3 4.6 5 9.7 7 14.9a61.2 61.2 0 00-2.1 8z" fill="#5275A0"/><path d="M116.8 56.8c-.6 3-2.4 5.5-4 8a62.6 62.6 0 00-7.5 18.5c-.4 1.6-.6 3.2-.3 4.9-3.9-1-5.4-12-5.7-15.2-.5-5.9.5-12 3-17.3 1-2.4 2.4-4.7 4.5-6.2 2-1.5 5-2 7.3-.7a6 6 0 012.6 3.6 9 9 0 01.1 4.4z" fill="#52D2BC"/><path d="M103.5 85c-2.4-6.1-1-19 3-27 1-2.4 2.7-4.7 5-6" stroke="#00AD9F" stroke-miterlimit="10" stroke-linecap="round" stroke-linejoin="round"/><path opacity=".2" d="M116.8 56.8c-.6 3-2.4 5.5-4 8l-2.3 4.2c-1-1.8-1.8-3.7-2-5.8-.3-3.4 1-7 3.8-9.1 1.3-1 2.8-1.5 4.4-1.7a9 9 0 01.1 4.4z" fill="#5275A0"/><path d="M139.2 82.4c-.2 1.1-.6 2.2-1 3.2a21.2 21.2 0 01-10.8 9.5l-.3-7.4c-.3-6.8-7.6-10.5-12.2-15.4a15.8 15.8 0 01-4.5-9c-.3-3.5 1-7.2 3.8-9.2 2.3-1.7 5.4-2 8.2-1.8 4.7.3 9.3 2.3 12.2 5.9l.4.4a40.7 40.7 0 014.2 23.8z" fill="#00AD9F"/><path d="M116.2 57.7c5 2.6 10 5.8 13 10.7 4.1 6.8 3.2 15.6 0 22.9" stroke="#00AD9F" stroke-miterlimit="10" stroke-linecap="round" stroke-linejoin="round"/><path d="M223.8 125.8c3.2-5.3 1.6-12.1 2.7-18.2.9-4.7 3.5-9 7.2-12 2.4-2 5.7-3.2 8.3-1.8.6.3 1.3.7 1.8.3.4-.2.5-.6.6-1 .7-3.2-1-6.8.4-10a9 9 0 013.6-3.9c3-1.8 6.4-3 10-3 .9 0 1.8 0 2.7.4 1.4.7 2.1 2.6 2 4.2a9.6 9.6 0 01-2.2 4.5c-3.4 4.5-8.4 8.3-9 13.8 0 .7 0 1.5.2 2 .3.7 1 1.1 1.2 1.7 1 2-1 4.1-2.9 5a17 17 0 01-5.7 1.6c-1.4.2-3 .2-3.9 1.2-1.7 1.9.3 4.8 0 7.4-.3 1.5-1.4 2.8-2.6 3.9-2 2-4.4 3.8-6.9 5.4-2 1.3-4.1 2.4-5.9 4a9.1 9.1 0 00-3.3 6.1" fill="#52D2BC"/><path d="M228 120.7c.6-2.6 1.8-5 3-7.3 1.8-3.7 3.7-7.4 6.5-10.4 2.1-2.3 4.7-4.1 6.9-6.4 1.5-1.6 2.8-3.4 3.9-5.3.5-1.1 1-2.2 1.8-3.2s2-1.9 3.1-2.8c1.5-1.3 2.6-3 3.4-4.7" stroke="#00AD9F" stroke-miterlimit="10" stroke-linecap="round" stroke-linejoin="round"/><path d="M270.1 129.5c-.7 2.8-1.8 5.6-3.6 7.8a16.6 16.6 0 01-4.6 3.7l-2.8 1.4a33.5 33.5 0 01-11.7 2.6c-5.8.2-11.8-1.1-17.4.6a17.2 17.2 0 00-10 7.8l.8-4.8a54.3 54.3 0 015.7-15A57 57 0 01247 116c4-2 8.6-3.4 13-2.8 4.6.5 9 3.4 10.4 7.6.9 2.8.5 5.8-.3 8.6z" fill="#5193F4"/><path d="M224.6 145a35.4 35.4 0 0118-13.7c4.5-1.5 9.3-2 13.8-3.4 4.6-1.3 9.2-3.6 11.9-7.5" stroke="#0B43A4" stroke-miterlimit="10" stroke-linecap="round" stroke-linejoin="round"/><path d="M227.4 191.4c.3-6.5 3.6-12.5 7.7-17.6a31 31 0 0112.6-10c1.6-.6 3.4-1 5-.6 1.7.4 3.2 1.8 3.2 3.5 0 1.4-1 2.7-2 3.7-3.3 3.3-7.6 5.5-11.7 8-7 4.1-13.5 9.7-16.3 17.4" fill="#52D2BC"/><path d="M230 185.7c4.2-9.5 15.2-18 22.5-19" stroke="#00AD9F" stroke-miterlimit="10" stroke-linecap="round" stroke-linejoin="round"/><path d="M224.8 196.6c0-1.1 3.5-4 4.3-4.7 4.4-4 9.7-7 15.3-8.7 2.2-.8 4.6-1.3 6.9-.7 2.2.5 4.3 2.4 4.5 4.8.2 2.4-1.4 4.7-3.4 5.8a12 12 0 01-6.6 1.2c-3.5-.2-7-1-10.4-1-3.5 0-8.4.3-10.6 3.3z" fill="#00AD9F"/><path d="M228.4 193.3c7.1-4 18-6.4 25.8-5.5" stroke="#00AD9F" stroke-miterlimit="10" stroke-linecap="round" stroke-linejoin="round"/><path opacity=".2" d="M139.2 82.4c-.2 1.1-.6 2.2-1 3.2a56.7 56.7 0 01-5.3-20.7c-.1-2.3.5-4.7 1.7-6.7l.4.4a40.7 40.7 0 014.2 23.8z" fill="#5275A0"/><path d="M163.9 82c5.3-1.8 10.8-3.3 15.7-6.3 1.5-.8 2.9-1.9 4-3.2 1-1.4 1.6-3.1 1.4-4.8-.3-1.7-1.4-3.4-1-5 .3-1.2 1-2 1.7-3 1.6-2.3 2-5.3 1.2-7.9-.8-2.8-2.9-5-4.1-7.7a13 13 0 01-1-7c-4.5 0-8.6 2.5-13 3.3-3.3.6-6.8.3-10.2 1-6 1.4-11 6.8-12 13-2.8-.5-5.8.5-7.8 2.6-2 2.2-3.3 5.4-3 8.4 1.3 22 14 33.6 14 33.6s12-16.2 14-17z" fill="#7EE8D4"/><path d="M152 82a32.3 32.3 0 013.5-16 63 63 0 017.8-13.8c3.3-4.2 7.5-7.8 12.5-9.8M156.7 45.7a44 44 0 001 15.4M158.7 59.4a38 38 0 0120.6-5.4M145.1 60.3c6.7 2.8 7 12.6 7.2 15.4M154 69.5a23 23 0 0118-3.4M168 43.2a8 8 0 00-1.8 5.7M167.7 47.5c2.4-1.2 5.5-1.5 8.9-.6" stroke="#00AD9F" stroke-miterlimit="10" stroke-linecap="round" stroke-linejoin="round"/><path d="M36.3 58.2c.7 0 5-3.2 6.6-4.3.5-.3 1-.6 1.3-1 .3-.5.4-1.1.2-1.6-.3-.6-.8-1.3-2-1.3-2.1 0-2.9.8-4 1.8-3.3 3.6-2 6.4-2 6.4zM55.5 71c1.9.8 3.9 1.6 6 1.4.7-.1 1.6-.5 1.8-1.2.2-.7 0-1.4-.6-1.8-.5-.5-1.1-.7-1.8-.9-2.5-.6-6-.2-8.4.5 0 0 2 1.5 3 2zM67.8 43.4c-.8-.5-1.7-1.2-1.7-2.2 0-1 1-1.7 2-1.7s1.9.5 2.6 1.2c3.1 2.7 2.8 5.9 2.8 5.9l-5.7-3.2zM70.3 35a4 4 0 01-2-1.3c-.1-.3-.3-.8-.1-1.1.2-.6.6-1.2 2.1-.9 4.9.9 6 4.2 6 4.2s-4.7-.3-6-.9zM84.5 42.4c2-.1 4-1.1 5.2-2.6.5-.6 1-1.3 1-2 .2-.7 0-1.5-.5-2-.7-.6-1.8-.5-2.5 0a5 5 0 00-1.6 2.1c-.6 1-1.6 4.5-1.6 4.5z" fill="#4A49CA"/><path d="M49.7 113.6l-14.2-12.5c-2.5-2.2-5.1-4.5-6.7-7.5-3.4-6.3-1.4-14.6 3.2-20.1a40.4 40.4 0 0118.2-11.2c6.8-2.4 14-4 20.4-7.2 4.1-2 8.2-4.9 9.3-9.3.7-2.6.1-5.6-1.5-7.8a9.4 9.4 0 00-7-3.7M87.8 37.9c-1.3 4-6.3 6.4-8.6 9.8" stroke="#0B43A4" stroke-miterlimit="10" stroke-linecap="round" stroke-linejoin="round"/><path d="M69.8 42.5c1 1 2.2 1.9 3 3 1.8 2.4 2 6.4-.7 8.9M44.3 64.7a27 27 0 0015 5.5M34.8 70.5c-2-5.7.1-12.4 5-16" stroke="#0B43A4" stroke-miterlimit="10" stroke-linecap="round" stroke-linejoin="round"/><path d="M187.2 46.6c-.2-.7-.2-1.6.3-2.1.4-.4 1.1-.6 1.7-.4 4.1 1.8 3.7 8.3 3.7 8.3s-4-.5-5.7-5.8zM187.1 58.7c-2.7 4.9 6.9 4.5 10.3 1.6 0 0-8-5.8-10.3-1.6zM199.2 47c-.7-1-.9-2.3-.2-3.1.5-.6 1.4-.8 2.3-.7.8.2 2 1 2.5 1.6 3.1 3.9 1.6 7.7 1.6 7.7s-5.2-4.1-6.2-5.5zM237 59c-.2-.8-.1-1.7.5-2.2.3-.4.8-.5 1.3-.5s1 .3 1.5.5c1 .4 1.7 1.2 2.2 2.1 1.1 2.5.3 5.5.3 5.5s-5.2-3.6-5.8-5.4zM225.1 67.9a6.1 6.1 0 00-6.3-1c-.5.2-1 .5-1.3 1-.8 1-.5 2.5.3 3.5.7 1 2 1.7 3 2.2 2.2 1 5.5 1.2 7.8 1.7 0 0 0-4.4-3.5-7.4z" fill="#4A49CA"/><path d="M190.2 47.6c1.4 4.6 5.4 8 9.8 10 4.4 1.8 9.3 2.3 14 2.6 4.9.3 9.7.5 14.3 1.8 4.6 1.2 9 3.7 11 8 2.4 5.2.3 11.4-3 16-3.4 4.6-7.8 8.4-11 13-1.5 2.2-2.7 4.8-2.4 7.4.4 3.4 3.3 6 6 8.2M201.2 46c3.2 3.4 5.8 9 6.4 13.6" stroke="#0B43A4" stroke-miterlimit="10" stroke-linecap="round" stroke-linejoin="round"/><path d="M190.6 59.5c1.8.5 3.6 1 5.5 1s4-1 5.4-2.4M240.2 59.2c1.7 1.7 2.7 4 2.8 6.4a11 11 0 01-2.8 7M222.4 70c3.4 3 6.3 5.6 10 8.3 1.8 1.2 5.2 2.7 6.8 2.3" stroke="#0B43A4" stroke-miterlimit="10" stroke-linecap="round" stroke-linejoin="round"/><path opacity=".2" d="M261.9 141l-2.8 1.4a33.5 33.5 0 01-11.7 2.6c-5.8.2-11.8-1.1-17.4.6-2.6.7-5 2.1-6.9 4l-.6.2c-.4-3.9 9.4-9 12.4-10.4a35.6 35.6 0 0117.3-3c2.6.2 5.2.7 7.4 2.2.9.6 1.7 1.5 2.3 2.4z" fill="#5275A0"/><path d="M252.2 138.8c2.6.2 5.2.7 7.4 2.1 2.1 1.5 3.6 4.1 3.1 6.7-.6 3-3.6 4.9-6.6 5.2-3 .4-6-.4-9-1a63.7 63.7 0 00-19.9-1c-1.7.2-3.2.6-4.7 1.4-.4-4 9.4-9 12.4-10.4a35.6 35.6 0 0117.3-3z" fill="#52D2BC"/><path d="M225 149.7c5-4.3 17.5-7.2 26.4-6.2 2.7.2 5.4 1 7.4 2.8" stroke="#00AD9F" stroke-miterlimit="10" stroke-linecap="round" stroke-linejoin="round"/><path d="M216 101.5l47.7-.1a10.1 10.1 0 010 20.2l-32.6.1M71.6 136.5H38.2a5.7 5.7 0 100 11.5H48" stroke="#0B43A4" stroke-miterlimit="10" stroke-linecap="round" stroke-linejoin="round" stroke-dasharray="4 4"/><path d="M18.3 162.3c-11.4 0-11.7 17.1 2.9 17l214.4-.4c9 0 10-14-1.2-14-22.2 0-22.9-10.5-10.6-10.5" stroke="#C8DBFB" stroke-miterlimit="10" stroke-linecap="round" stroke-linejoin="round" stroke-dasharray="4 4"/><path d="M21 161.9a2.8 2.8 0 11-5.6 1 2.8 2.8 0 015.6-1z" fill="#5193F4"/><path d="M229.3 154.5a2.8 2.8 0 11-5.6.9 2.8 2.8 0 015.6-1z" fill="#0B43A4"/><path opacity=".2" d="M232.4 203.8l-177.6.3c-2.3 0-4.2-1.9-4.2-4.3l-.3-117.5c0-2.4 2-4.3 4.3-4.3l177.5-.4c2.4 0 4.3 2 4.3 4.3l.2 117.6c0 2.3-1.9 4.3-4.2 4.3z" fill="#5275A0"/><path d="M228.9 201.5l-177.5.4c-2.4 0-4.3-2-4.3-4.3L46.8 80c0-2.4 2-4.3 4.3-4.3l177.5-.4c2.4 0 4.3 2 4.3 4.3l.3 117.6c0 2.4-2 4.3-4.3 4.3z" fill="#fff"/><path d="M228.3 75.3l-176.7.4a4.7 4.7 0 00-4.7 4.7v4l186.1-.3V80c0-2.6-2-4.7-4.7-4.7z" fill="#0056EC"/><path d="M51.8 201.9h26.7l-.2-117.5H46.9l.2 112.8c0 2.6 2.1 4.7 4.7 4.7z" fill="#C8DBFB"/><path d="M228.7 76.5c1.7 0 3 1.4 3 3.1l.3 117.6a3 3 0 01-.9 2.2 3 3 0 01-2.2 1l-177.5.3a3.1 3.1 0 01-3.1-3.1L48.1 80a3 3 0 01.9-2.2 3 3 0 012.2-1l177.5-.3zm0-1.2l-177.5.4c-2.4 0-4.3 2-4.3 4.3l.2 117.6c0 2.4 2 4.3 4.3 4.3l177.5-.4c2.4 0 4.3-2 4.3-4.3L233 79.6c0-2.3-2-4.3-4.3-4.3z" fill="#0056EC"/><path d="M74 192.9H53.4c-.9 0-1.6-.7-1.6-1.6v-.2c0-1 .7-1.7 1.6-1.7H74c.9 0 1.6.7 1.6 1.6v.3c0 .9-.7 1.6-1.6 1.6zM71.5 113.2H54a3 3 0 01-3-3V92.7a3 3 0 013-3h17.5a3 3 0 013 3v17.5a3 3 0 01-3 3z" fill="#fff"/><path d="M146.5 165.7l-61 .1c-1.2 0-2.2-1-2.2-2.1v-.3c0-1.2 1-2.1 2.2-2.1l61-.2c1.2 0 2.2 1 2.2 2.2v.3c0 1.1-1 2.1-2.2 2.1zM143 96.2H94.8c-1.2 0-2.2-.9-2.2-2v-.4c0-1.1 1-2.1 2.2-2.1l48.2-.1c1.2 0 2.1 1 2.2 2.1v.3c0 1.2-1 2.2-2.2 2.2zM219.3 145H155c-1.2 0-2.2-.9-2.2-2v-.3c0-1.2 1-2.2 2.1-2.2l64.4-.1c1.1 0 2.1 1 2.1 2.1v.3c0 1.2-1 2.1-2.1 2.1zM146.6 175.1l-61 .2c-1.3 0-2.2-1-2.2-2.2v-.2c0-1.2 1-2.2 2.1-2.2l61-.1c1.2 0 2.2 1 2.2 2.1v.3c0 1.2-1 2.1-2.1 2.1zM146.6 184.6h-61c-1.3 0-2.2-.9-2.2-2v-.3c0-1.2 1-2.2 2.1-2.2h61c1.2 0 2.2.9 2.2 2v.3c0 1.2-1 2.2-2.1 2.2zM218 190.7l-61.6.1c-2 0-3.5-1.5-3.5-3.5v-26.4c0-2 1.5-3.6 3.5-3.6l61.5-.1c2 0 3.6 1.6 3.6 3.5v26.5c0 2-1.6 3.5-3.5 3.5zM57.1 80a1.5 1.5 0 11-3 0 1.5 1.5 0 013 0zM62 81.5a1.5 1.5 0 100-3 1.5 1.5 0 000 3zM69.9 80a1.5 1.5 0 11-3 0 1.5 1.5 0 013 0zM90.3 94.4a4.3 4.3 0 10-8.7-.8 4.3 4.3 0 008.7.8z" fill="#C8DBFB"/><path d="M72.7 116.9H53.5a.8.8 0 01-.8-.8c0-.5.3-.9.8-.9h19.2c.5 0 .9.3.9.8s-.4.9-.9.9zM72.8 120.6H53.5a.8.8 0 01-.8-.8c0-.5.3-.9.8-1h19.2c.5 0 .9.4.9.9s-.4.9-.8.9z" fill="#fff"/><path d="M94.8 128.4h-5.4v22.8h-4.7a3 3 0 01-3-3l-.1-42.2a3 3 0 013-3h10.1l.1 25.4z" fill="#C8DBFB"/><path d="M130.1 103v.5a3 3 0 013 3v41a3 3 0 01-2.9 3l-45 .2a3 3 0 01-3-3v-41.1a3 3 0 013-3l45-.1v-.6zm0 0h-45c-2 0-3.5 1.6-3.5 3.6v41.1c0 2 1.7 3.5 3.6 3.5h45c2 0 3.6-1.7 3.6-3.6l-.1-41.2c0-2-1.6-3.5-3.6-3.5zM205.3 136.8l-60-13.6c-2-.4-3.2-2.3-2.7-4.2l6.7-30c.5-1.8 2.4-3 4.3-2.6l60 13.6c1.9.4 3 2.3 2.7 4.2l-6.8 29.9c-.4 1.9-2.3 3.1-4.2 2.7z" fill="#C8DBFB"/><path d="M89.1 218h-8.4l-2-10.7H91l-2 10.7z" fill="#0056EC"/><path d="M81 207.3c0 .9-.2 2.4.4 2.4.6 0 .4-1.4 1-1.4.4 0-.2 4.7 1.4 4.8 1.1 0 1-2.3 1-3.8.1-1 1.4-.7 1.4 0v2c0 1.4 2.2 1 2.1-.9v-3H81z" fill="#C8DBFB"/><path d="M79 213.8h-.5c-.6-.2-1-.5-1.3-1-.9-1.9 1.4-5.3 1.5-5.4l.1.6s-2 3-1.2 4.6c.2.4.5.6 1 .7h.4c3 0 8.2-5.6 8.3-5.6.2-.3.6 0 .4.2-.2.2-5.5 5.9-8.7 5.9z" fill="#0C2340"/><path opacity=".2" d="M167.2 67.5c-12-.5-28.3 8.4-22.5 30-.1 1.8 1 3 2.1 2.7 1.2-.3.2-3.8.2-3.8 2-16 5.7-18.8 12-18.8h14.8c3.6.5 10.3 3.1 11.3 16l3.7.6c.2-9.3-2-26-21.6-26.7z" fill="#5275A0"/><path d="M167.2 65.6c-12-.4-28.3 8.4-22.5 30l2.3-1c2-16.1 5.7-19 12-18.8h14.8c3.6.5 10.4 3.7 11.4 16.6h3.6c.2-9.3-2-26-21.6-26.8z" fill="#EF832B"/><path d="M164.8 66l-1.8 3.9s.2 2.1 2.4 2.1c2.1 0 2.4-1 2.4-1l.3-4.5-3.3-.5z" fill="#FFB9A3"/><path d="M173.9 62.7c-2 3.6-3 4.7-5.6 5.2-3.4.7-7.2-1.6-5.4-7.3 1.4-4.6 3.6-3.9 5.8-3.7 2.1.2 7.4 2 5.2 5.8z" fill="#FFB9A3"/><path d="M165.9 59.9c-.6-.3-1.3 0-1.7.4-.4.4-.6 1.1-.4 1.7-.9 0-1.6.8-1.5 1.7-.6-1.4-.3-2.7-.4-4-.1-1.4 0-2.9 1-4 .3-.4.7-.7 1.2-1 1.9-1 4.2-1 6.1 0 .4.2 1.4.8 2.8.4 2.6-.6 4 1.2 2.5 2.8.5.2 1 .4 1.3 1v.3l-.2.2h-1.4c.2.2 1.1.3 1.4.8.8 1.5-2.3.8-2.7.6.5.1 1.9 1.2 1.5 2-.1.2-2 1.3-4-1-.5-.6-1-1-1.8-1.3-.5-.1-1 0-1.6.3-.4.1-1.3.7-1.6.4-.3-.4 0-1-.5-1.3z" fill="#0C2340"/><path d="M185.6 92.3c-.5 1.9-1 2-.4 2.3.6.3 1.2-.7 1.2-.7l3 .6s-.7-2-1.2-2.2c-.5-.2-2.6 0-2.6 0zM147 94.5c.3 1 .4 1 1 2.1 1 2.2-1.4 5.7-2.9 2-.4-1.1-.4-3-.4-3l2.3-1z" fill="#FFB9A3"/><path d="M170 55c2.1 0 4.6-1.3 6.2.5.1.2.4 0 .3-.2-1.5-2.2-4.3-.6-6.4-.7-.2 0-.2.4 0 .4zM170.9 53.9c-1.4.2-2.7-.4-4.1-.2a6 6 0 00-3 1.5c-.2.2 0 .5.3.4 1.2-.8 2.4-1.5 3.8-1.4 1.1 0 2 .4 3.1 0 .3 0 .2-.4-.1-.3zM163 55.8c-1 .6-1.5 1.4-1.6 2.5-.1.9-.1 2.8.7 3.3.2 0 .4-.2.3-.4-.6-.5-.6-2-.6-2.7 0-1 .5-1.9 1.4-2.5.1-.1 0-.3-.2-.2zM178 59c-.5-.8-1.8-1.6-2.8-1l.1.3 1.3.1c.4.1.8.4 1.1.8.1.2.4 0 .3-.1z" fill="#0C2340"/><path d="M112.3 149c6.3 2.4 11.7 9.5 10.5 14.8-1.4 5.9-5.5 8.4-5.5 8.4l-1.3-2.4s3.3-5 3-7.4c-.5-3.9-5.3-6.5-5.3-6.5l-1.4-6.8z" fill="#0B43A4"/><path d="M97 215.6S93 217 92 218h7.6v-2.4H97zM113.8 215.4s1 1.3 1.2 2.6H110a6 6 0 011-2.6h2.9z" fill="#0C2340"/><path d="M114 215.5h-3.5a508.1 508.1 0 00-2.8-41.3l1.8-.4 7.2-1.6c1.2 5.6-1.6 31.3-2.6 43.3z" fill="#047F76"/><path d="M101 174c-2.7 4.3-3.4 35.8-4.6 41.7l3.4.1s3.8-19.8 12-42.1l-10.8.3z" fill="#009790"/><path opacity=".2" d="M113.3 173.7c-1.6 4.4-3.1 8.7-4.4 12.8-.5-6.3-1-11.3-1.3-12.3l2-.4 3.7-.1z" fill="#5275A0"/><path d="M101 174c-2.7 4.3-3.4 35.8-4.6 41.7l3.4.1s3.8-19.8 12-42.1l-10.8.3z" fill="#009790"/><path d="M103.2 138.8s-2.2 8.2 3.2 8.2l-.3 2.1 4 .5-.8-3s.8-5 .8-6c.1-1.8-4.8-4.8-7-1.8z" fill="#FFB9A3"/><path d="M89.9 129.7h-1.6v6.7h1.6v-6.7z" fill="#0C2340"/><path d="M93.6 129.6h-9c-.7 0-1.2-.5-1.2-1v-.3c0-.7.5-1.2 1.1-1.2h9.1c.6 0 1.2.5 1.2 1.2v.2c0 .6-.6 1.1-1.2 1.1z" fill="#0056EC"/><path d="M87.8 138.1c0-1.5-1.3-1.1-.6-3.6.5-1.5 3.6.2 3.2 1.3-.4 1-.8 2.8-.8 2.8l-1.8-.5z" fill="#FFB9A3"/><path d="M106.4 148.7c-8 .5-8.6 3.2-12.2 2.8-5.3-.6-4.3-10.5-3.7-14h-3.2s-5.7 22.4 12.4 18.3c-.7 4 3.8 10.4-.6 18.2a28.5 28.5 0 0018.8 0c-1-1.3 2-14.4-3.7-23.8-1.2-1.9-7.2-1.6-7.8-1.5z" fill="#0056EC"/><path d="M106.4 148.7c-8 .5-8.6 3.2-12.2 2.8-5.3-.6-4.3-10.5-3.7-14h-3.2s-5.7 22.4 12.4 18.3c-.7 4 3.8 10.4-.6 18.2a28.5 28.5 0 0018.8 0c-1-1.3 2-14.4-3.7-23.8-1.2-1.9-7.2-1.6-7.8-1.5z" fill="#0056EC"/><path d="M105.3 140.4c.5.2 1.1.3 1.4.7.2.3.2.6.2 1 0-.4.5-.6.8-.6.4 0 .7.4.7.8v.5l-.7 1.1c.7.2 1.2 2.2 1.6 2.8 1-.3 3.5-1.3 3.7-5.2.1-1.8-.4-4-2.4-5.2-1.4-.8-3.7-.9-5.3-.5-1.3.4-3.4 1.7-2.4 3.2.5.8 1.5 1.2 2.4 1.4z" fill="#EF832B"/><path d="M112.2 138c.7-.3 1.7-.2 2.1.4.4.5.4 1.2.5 1.8 0 .2.1.5.3.7.3.2.7.3 1 .3l2.6.1c.9.1 1.8.6 2 1.4.1.5 0 1 .2 1.4.3.6 1 1 1.6 1.4a10 10 0 013.1 3.1c.5.8 1 1.7 1 2.6 0 1 .7 2.2.5 3-.2 1-1.1 2.4-3 3-3.4 1-4.4 1.5-7.6-.3l-1.5-1.3c-.2-.2-.4-.5-.5-.9-.3-.9 0-1.9.5-2.7l1.6-2.4c.3-.5.5-1 .5-1.6 0-.2 0-.4-.2-.6a1 1 0 00-.5-.2c-.7-.1-1.5 0-2.1-.3-.6-.3-1-1-.8-1.7l.6-1.2c.1-.6-.3-1.2-.8-1.6-.6-.4-1.2-.5-1.9-.6-.3 0-.7-.1-1-.3-.2-.3-.4-.7-.4-1 0-1.3 1-2.2 2.2-2.6z" fill="#EF832B"/><path d="M111.6 141.2c4 .9-1 4.7 1 6.5.7.5 1.4.3 2 .4 2.8.4 1.3 2.2 1.1 3.7 0 .2.3.2.4 0 .2-1 1.1-2.2.7-3.2-.5-1-1.5-.9-2.3-.9-1 0-2.2 0-1.9-2 .1-.6.5-1 .7-1.5.2-.5.3-1 .2-1.5-.2-1-1-1.5-1.8-1.7-.2 0-.2.2-.1.2zM103.4 136.4c3-1.6 6.1-1.3 8.7 1 .2.1.4 0 .3-.3a6.8 6.8 0 00-9-.9c-.2 0 0 .2 0 .2z" fill="#EF832B"/><path d="M206.4 146l-1.3 2.7 3.3 1.3.3-3-2.3-1z" fill="#FFB9A3"/><path d="M208.4 137.3c-7.4 3.2-4.3 11 .1 10 2.2-.4 3.3-7.4 3.3-7.4l-3.4-2.6z" fill="#FFB9A3"/><path d="M210.9 136.2c-.3-.5-.5-1-1-1.3-.3-.3-1-.4-1.3 0-.5.4-.2 1.3.3 1.7-.5 0-1-.2-1.3 0-.2.3-.1.7 0 1a4 4 0 001.5 1.7c-.4.2-.8.7-.6 1l.3.3c0 .2 0 .5-.2.8l-.7 1c.2-.3.8-.1 1 .3.2.4 0 .8-.2 1.2l-.6.3c-.2 0-1.1 2.8-.4 3.4.8.7 3.7 0 4.2-.7.4.5 1 .8 1.6.7.6-.1 1.1-.9.8-1.4.6.2 1.4 0 1.9-.5.5-.6.5-1.4.2-2 .3-.1.4-.6.3-1-.2-.7-.8-1.3-1.5-1.5.3 0 .6-.4.7-.8 0-.3-.2-.7-.5-1-.6-.8-1.5-1-2.5-1.2-1-.1-1.6-1.2-2-2z" fill="#4A49CA"/><path d="M204 215s-4.4 2.1-5 2.8c0 0 8.5.4 9.2 0 .7-.4-1.3-2.7-1.3-2.7h-3zM220 212.7s-3.8 3-4.2 3.7c0 0 9-1.3 9-2 0-.5-2-2.3-2-2.3l-2.8.6z" fill="#0C2340"/><path d="M208.1 175c-.1 1-6 24.3 10.9 38.2l4.8-1s-5.7-5.4-8.3-15c-2.6-9.1-.6-10 1-15 1.6-5.6.4-9.6.4-9.6l-8.8 2.5z" fill="#D8742A"/><path d="M200 175c-2.6 6.4-7.2 28.2 2.8 40.5h5s-4-4.3-4.4-14.4c-.4-10 2.1-14.4 4-17.7 1.7-3.3 3.4-9 3.4-9l-10.8.6z" fill="#EF832B"/><path d="M196.5 135.3c-1.3 4.7-1.7 13.4 5 16.9l4.4-1.1s-8-4.2-6.3-14.9l-3-.9z" fill="#0B43A4"/><path d="M184.2 133l3.5-.5s-.4 14.5 16.4 15.8c12.8.9 13.8 25 13.8 25-4.2 2.7-11 3.6-20 3 0 0 .6-17.2-.8-22 0 0-14-4.3-12.9-21.4z" fill="#0056EC"/><path d="M180 130.3c-.6.7 1.9 1.5 4.2 2.6l3-.3v-1.3c0-.6-.3-1-.6-.4-.4.5-2 .7-2.7.2-.7-.5-3.3-1.5-3.9-.8zM196.5 135.3c-1-1-.8-1-.8-1l3.4.8s.7-1.7 1.4-1.7c.6 0-.5 1.1-.2 1.6.2.4-.7 1.2-.7 1.2l-3-.9z" fill="#FFB9A3"/><path d="M212.8 137.8c.7.1 1.4.2 2 .7.5.5.8 1.3.4 2-.2.2.2.5.4.2.6-.7.4-1.6-.1-2.3-.6-.7-1.8-1-2.7-1-.2 0-.2.3 0 .4zM215.8 144c.5.3.9.8.7 1.3-.2.6-.7.9-1.2 1.2-.2.1 0 .4.2.3.7-.3 1.3-.8 1.4-1.6.1-.6-.3-1.1-.9-1.5-.2 0-.4.2-.2.4zM208 147.6c1.6 1 3.9.8 5.2-.6.1-.1-.1-.5-.3-.3-1.4 1-3 1.4-4.7.7-.1-.1-.3 0-.1.2z" fill="#4A49CA"/><path d="M216 138.8c1 .9 0 2-.5 2.8-.2.1 0 .3.2.2.5-.5 1-1 1-1.8.1-.5 0-1-.6-1.3 0 0-.1 0 0 .1z" fill="#4A49CA"/><path d="M116.2 31l-1.3-3.3 13.3-5.1-12 8.4z" fill="#0B43A4"/><path d="M117 29l11.2-6.4-7.9 8-3.4-1.7zM111.8 26.3l16.4-3.7-13.3 5-3.1-1.3z" fill="#5193F4"/><path d="M117 29l-.8 2 2-1.4-1.3-.7z" fill="#0056EC"/><path d="M114.7 30.6c-3.5-.6-8.2 3-6.2 6.6.7 1.2 4.3.7 4-.7-.1-.6-1-1-1.6-.9-4 .5-4 3.8-3.9 4.6.9 4.3 7.5 2.8 9.7 2.2" stroke="#C8DBFB" stroke-miterlimit="10" stroke-linecap="round" stroke-linejoin="round" stroke-dasharray="4 4"/></g><defs><clipPath id="clip0"><path fill="#fff" d="M0 0h280v239H0z"/></clipPath></defs></svg>